<svg id="Capa_1" data-name="Capa 1" xmlns="http://www.w3.org/2000/svg" viewBox="0 0 1080 1080"><defs><style>.cls-1{fill:#fff;stroke:#fff;stroke-miterlimit:10;stroke-width:33px;}</style></defs><path class="cls-1" d="M533.82,775.94,178.9,506.67a7,7,0,0,1-1.35-9.81h0a7,7,0,0,1,9.81-1.35L533.84,758.37a7,7,0,0,0,8.45,0L889.75,495.5a7,7,0,0,1,9.8,1.36h0a7,7,0,0,1-1.35,9.81L542.28,775.94A7,7,0,0,1,533.82,775.94Z"/><path class="cls-1" d="M538.05,787.84a17.47,17.47,0,0,1-10.57-3.54L172.55,515a17.5,17.5,0,1,1,21.16-27.88L538.07,748.4,883.41,487.13A17.5,17.5,0,1,1,904.53,515L548.61,784.32A17.48,17.48,0,0,1,538.05,787.84Z"/><path class="cls-1" d="M538.05,781.85a11.51,11.51,0,0,1-6.95-2.33L176.18,510.25a11.5,11.5,0,0,1,13.9-18.32L536.56,754.79a2.5,2.5,0,0,0,3,0L887,491.91a11.52,11.52,0,0,1,16.11,2.23,11.5,11.5,0,0,1-2.23,16.11L545,779.53A11.45,11.45,0,0,1,538.05,781.85ZM183.13,498.59a2.5,2.5,0,0,0-1.51,4.49L536.54,772.35a2.51,2.51,0,0,0,3,0L895.48,503.08a2.5,2.5,0,1,0-3-4L545,762a11.54,11.54,0,0,1-13.88,0L184.64,499.1A2.5,2.5,0,0,0,183.13,498.59Z"/><path class="cls-1" d="M538.05,792.35a22.15,22.15,0,0,1-13.29-4.46L169.83,518.62a22,22,0,1,1,26.6-35.06l341.64,259.2L880.7,483.54a22,22,0,1,1,26.55,35.09L551.33,787.9A22.11,22.11,0,0,1,538.05,792.35Z"/><path class="cls-1" d="M536.71,584.5,181.78,315.23a7,7,0,0,1-1.34-9.81h0a7,7,0,0,1,9.81-1.35L536.72,566.93a7,7,0,0,0,8.45,0L892.63,304.06a7,7,0,0,1,9.81,1.36h0a7,7,0,0,1-1.36,9.8L545.16,584.5A7,7,0,0,1,536.71,584.5Z"/><path class="cls-1" d="M540.94,596.4a17.49,17.49,0,0,1-10.58-3.54h0L175.44,323.59a17.5,17.5,0,1,1,21.15-27.88L541,557,886.3,295.69a17.5,17.5,0,1,1,21.11,27.91L551.5,592.87A17.45,17.45,0,0,1,540.94,596.4Z"/><path class="cls-1" d="M540.94,590.41a11.47,11.47,0,0,1-7-2.33L179.06,318.81A11.5,11.5,0,1,1,193,300.49L539.44,563.35a2.52,2.52,0,0,0,3,0L889.92,300.47a11.5,11.5,0,1,1,13.87,18.34L547.88,588.09A11.5,11.5,0,0,1,540.94,590.41ZM186,307.15a2.5,2.5,0,0,0-1.52,4.49L539.43,580.91a2.51,2.51,0,0,0,3,0L898.36,311.64a2.47,2.47,0,0,0,1-1.65,2.49,2.49,0,0,0-4-2.34L547.89,570.53a11.55,11.55,0,0,1-13.89,0L187.53,307.66A2.54,2.54,0,0,0,186,307.15Z"/><path class="cls-1" d="M540.94,600.91a22.12,22.12,0,0,1-13.3-4.47L172.72,327.18a22,22,0,0,1,26.59-35.06L541,551.32,883.58,292.1a22,22,0,1,1,26.55,35.09L554.21,596.46A22.1,22.1,0,0,1,540.94,600.91Z"/></svg>